<svg version="1.1" xmlns="http://www.w3.org/2000/svg" width="336" height="64" viewBox="0 0 336 64">
<g id="#2716d1fe">
<path fill="#2716d1" opacity="1.00" d=" M 0.00 9.96 C 1.95 7.95 4.11 6.14 6.45 4.62 C 5.10 7.60 6.13 10.71 7.00 13.65 C 5.16 15.66 3.33 18.02 4.54 20.87 C 3.00 19.62 1.52 18.30 0.00 17.02 L 0.00 9.96 Z" />
<path fill="#2716d1" opacity="1.00" d=" M 13.60 4.58 C 20.06 6.89 22.17 15.91 16.65 20.30 C 11.68 15.89 15.30 9.90 13.60 4.58 Z" />
<path fill="#2716d1" opacity="1.00" d=" M 6.60 25.54 C 9.16 25.49 11.72 25.52 14.28 25.64 C 14.28 37.24 14.25 48.84 14.29 60.44 C 11.71 60.62 9.13 60.65 6.55 60.56 C 6.63 48.89 6.54 37.21 6.60 25.54 Z" />
<path fill="#2716d1" opacity="1.00" d=" M 31.55 28.57 C 37.98 23.88 46.67 24.05 54.12 25.73 C 56.22 26.45 55.18 29.05 55.56 30.66 C 50.31 30.82 44.80 28.35 39.80 30.89 C 30.76 35.67 31.06 51.38 40.52 55.57 C 45.41 57.68 50.82 56.05 55.62 54.48 C 55.58 56.38 55.52 58.28 55.44 60.19 C 50.73 60.06 46.69 63.62 41.92 62.50 C 35.70 60.43 29.06 57.13 26.57 50.60 C 23.97 43.24 24.77 33.51 31.55 28.57 Z" />
<path fill="#2716d1" opacity="1.00" d=" M 70.75 27.64 C 77.94 22.40 89.82 23.87 93.71 32.48 C 95.13 35.97 97.13 41.43 94.14 44.30 C 86.46 44.53 78.78 44.30 71.10 44.36 C 70.89 49.38 73.97 54.27 78.75 55.95 C 84.24 57.58 89.96 55.98 95.45 55.21 C 95.46 56.24 95.48 58.31 95.49 59.35 C 86.87 62.58 75.79 63.14 68.72 56.28 C 60.62 48.82 61.69 33.90 70.75 27.64 M 71.30 39.41 C 76.55 39.31 81.82 39.65 87.06 39.29 C 90.38 37.03 87.05 32.17 84.44 30.59 C 78.41 26.90 70.24 32.45 71.30 39.41 Z" />
</g>
<g id="#73a0d0ff">
<path fill="#73a0d0" opacity="1.00" d=" M 6.45 4.62 C 8.83 4.49 11.22 4.49 13.60 4.58 C 15.30 9.90 11.68 15.89 16.65 20.30 C 12.97 22.60 8.36 23.32 4.54 20.87 C 3.33 18.02 5.16 15.66 7.00 13.65 C 6.13 10.71 5.10 7.60 6.45 4.62 Z" />
<path fill="#73a0d0" opacity="1.00" d=" M 328.34 9.39 C 330.43 9.41 332.52 9.43 334.61 9.45 C 334.71 26.51 334.62 43.57 334.66 60.63 C 332.53 60.65 330.40 60.66 328.28 60.66 C 328.30 43.57 328.18 26.48 328.34 9.39 Z" />
<path fill="#73a0d0" opacity="1.00" d=" M 165.67 31.80 C 170.91 23.80 184.18 21.73 190.64 29.35 C 194.22 33.15 194.71 38.57 194.63 43.54 C 186.66 45.40 178.26 43.89 170.11 44.37 C 170.02 49.33 172.97 54.27 177.77 55.91 C 183.23 57.61 188.97 56.02 194.45 55.20 C 194.46 56.23 194.50 58.31 194.51 59.35 C 185.28 62.95 173.05 62.97 166.29 54.68 C 161.03 48.37 161.07 38.46 165.67 31.80 M 170.40 39.42 C 175.64 39.32 180.89 39.62 186.12 39.33 C 189.43 37.47 186.29 32.66 184.03 30.94 C 178.12 26.60 169.13 32.15 170.40 39.42 Z" />
<path fill="#73a0d0" opacity="1.00" d=" M 207.32 27.31 C 214.85 24.67 225.07 22.17 231.38 28.60 C 235.96 36.57 232.02 46.42 233.92 55.05 C 235.20 56.48 237.11 57.01 238.79 57.82 C 238.65 59.03 238.50 60.24 238.35 61.45 C 233.70 62.54 229.86 60.77 226.91 57.26 C 222.72 59.01 218.83 62.26 213.98 61.61 C 206.77 61.99 200.42 53.37 204.86 47.00 C 209.71 39.92 219.09 40.84 226.51 39.47 C 226.66 36.01 226.69 31.74 222.96 30.09 C 217.75 28.36 212.44 30.81 207.38 31.95 C 207.35 30.40 207.33 28.86 207.32 27.31 M 216.49 44.73 C 213.15 45.86 208.68 49.81 211.54 53.46 C 214.97 58.76 223.02 56.39 226.36 52.24 C 226.17 49.43 227.60 45.65 225.16 43.59 C 222.23 43.28 219.23 43.61 216.49 44.73 Z" />
<path fill="#73a0d0" opacity="1.00" d=" M 250.51 27.54 C 256.26 22.99 263.81 25.02 270.43 25.68 C 270.44 27.35 270.46 29.02 270.47 30.70 C 265.10 30.59 259.12 27.83 254.31 31.51 C 252.93 39.23 262.90 39.31 267.56 42.47 C 273.45 44.82 275.74 53.28 270.54 57.53 C 264.39 63.30 255.29 61.76 247.81 60.19 C 246.43 58.33 246.18 56.07 247.44 54.06 C 253.11 56.25 261.95 59.39 266.00 53.01 C 267.30 51.16 265.35 49.18 263.97 48.06 C 258.69 44.52 250.92 44.14 247.67 37.98 C 246.79 34.32 246.95 29.77 250.51 27.54 Z" />
<path fill="#73a0d0" opacity="1.00" d=" M 290.01 28.05 C 296.01 23.42 305.74 23.11 311.10 28.92 C 314.87 32.70 315.61 38.33 315.60 43.42 C 307.37 45.56 298.67 43.71 290.25 44.51 C 291.05 48.68 292.85 53.15 296.89 55.13 C 302.78 58.30 309.51 55.65 315.73 55.33 C 315.50 57.04 315.03 58.68 314.28 60.23 C 307.15 61.39 299.30 63.02 292.63 59.25 C 281.06 53.75 280.12 35.63 290.01 28.05 M 291.39 34.75 C 291.40 36.31 291.41 37.87 291.43 39.43 C 296.76 39.45 302.08 39.33 307.41 39.53 C 309.94 34.92 305.01 28.99 300.03 29.53 C 296.23 29.11 293.49 32.04 291.39 34.75 Z" />
<path fill="#73a0d0" opacity="1.00" d=" M 101.35 25.54 C 103.62 25.49 105.89 25.47 108.15 25.46 C 111.20 34.09 113.27 43.09 116.98 51.46 C 120.61 43.10 123.26 34.30 125.98 25.61 C 128.43 25.50 130.87 25.45 133.32 25.43 C 136.55 33.94 137.63 43.37 142.04 51.35 C 145.78 42.91 148.09 33.92 151.71 25.42 C 153.72 25.45 155.74 25.49 157.75 25.53 C 153.65 37.25 148.97 48.76 145.12 60.56 C 142.38 60.66 139.63 60.63 136.90 60.42 C 135.49 51.69 131.84 43.49 129.99 34.85 C 124.85 42.37 123.30 51.99 120.07 60.52 C 117.38 60.67 114.68 60.66 112.00 60.46 C 109.12 48.65 104.65 37.25 101.35 25.54 Z" />
</g>
</svg>
